Coordinates
version=1
nRows=17
nColumns=40
inDegrees=yes

Units are S.I. units (second, meters, Newtons, ...)
Angles are in degrees.

endheader
time	pelvis_tilt	pelvis_list	pelvis_rotation	pelvis_tx	pelvis_ty	pelvis_tz	hip_flexion_r	hip_adduction_r	hip_rotation_r	knee_angle_r	knee_angle_r_beta	ankle_angle_r	subtalar_angle_r	mtp_angle_r	hip_flexion_l	hip_adduction_l	hip_rotation_l	knee_angle_l	knee_angle_l_beta	ankle_angle_l	subtalar_angle_l	mtp_angle_l	lumbar_extension	lumbar_bending	lumbar_rotation	arm_flex_r	arm_add_r	arm_rot_r	elbow_flex_r	pro_sup_r	wrist_flex_r	wrist_dev_r	arm_flex_l	arm_add_l	arm_rot_l	elbow_flex_l	pro_sup_l	wrist_flex_l	wrist_dev_l
     36.08250000	     -3.29011492	     -4.93220419	     -2.68586251	      1.12392837	      0.92512976	      0.45768100	     18.05390776	      0.53602187	    -10.71892961	     21.03815284	     21.03815284	      8.28142028	      0.53539516	     -4.66863421	      8.52227214	    -11.68783377	     -7.97121180	     38.62256295	     38.62256295	     14.90504382	    -17.17828916	     -0.92337156	    -10.09367922	      7.01687414	      1.47420555	      2.16217345	    -13.84032448	     -8.06263913	     30.78835025	     46.35925897	      0.00000000	      0.00000000	     13.18272929	    -14.85782934	     -7.48271314	     65.23752933	     47.45908369	      0.00000000	      0.00000000
     36.09514286	     -3.17280457	     -4.92864445	     -2.42760644	      1.12475405	      0.92595847	      0.45974473	     17.31930507	      0.60049053	    -11.10729137	     20.73383488	     20.73383488	      8.59426344	      0.88986083	     -4.68773985	     10.07450299	    -12.09653825	     -7.19982152	     42.00376786	     42.00376786	     13.51140457	    -17.84007161	     -0.78803308	    -10.14045780	      7.06594429	      1.54041459	      3.41665549	    -13.97032876	     -7.94485154	     31.40888377	     46.33339373	      0.00000000	      0.00000000	     12.30571705	    -14.35833308	     -7.60345398	     64.01359266	     47.44133718	      0.00000000	      0.00000000
     36.10778571	     -2.98755095	     -4.95718907	     -2.17986061	      1.12533181	      0.92676927	      0.46175489	     16.53479367	      0.71668042	    -11.43041700	     20.44757168	     20.44757168	      8.85155345	      1.16049505	     -4.70871296	     11.60721536	    -12.49871399	     -6.39645609	     45.34584006	     45.34584006	     12.15638790	    -18.31860813	     -0.43080894	    -10.33279712	      7.09472741	      1.73065308	      4.80160980	    -14.15443589	     -7.85728505	     32.08722129	     46.30914917	      0.00000000	      0.00000000	     11.55515805	    -13.83926714	     -7.58597969	     62.99539062	     47.41747919	      0.00000000	      0.00000000
     36.12042857	     -2.93114220	     -4.90919834	     -1.82828084	      1.12563896	      0.92736322	      0.46337898	     15.89577628	      0.69113034	    -11.94822314	     20.15578496	     20.15578496	      9.11301259	      1.61141035	     -4.80551067	     13.49217047	    -12.59493488	     -5.17862267	     48.85180838	     48.85180838	     12.13189368	    -18.41868801	      3.54073335	    -10.25729041	      7.09763834	      1.48191173	      6.02566941	    -14.37832354	     -6.92103078	     33.53075975	     46.18722367	      0.00000000	      0.00000000	     11.18048568	    -13.21535203	     -8.42274398	     59.67165591	     47.41951288	      0.00000000	      0.00000000
     36.13307143	     -2.94787113	     -4.96405609	     -1.52035567	      1.12557735	      0.92778038	      0.46500922	     15.33301109	      0.85523144	    -12.20543294	     19.77407738	     19.77407738	      9.21679062	      1.65325428	     -4.81837490	     15.46202426	    -12.75475111	     -3.99024820	     52.12516616	     52.12516616	     12.14445726	    -18.40199519	      7.43733646	    -10.28072154	      7.15356555	      1.90156707	      6.87927124	    -14.97263633	     -5.58938251	     35.19886185	     46.02808545	      0.00000000	      0.00000000	     10.70327984	    -12.54181445	     -8.29314418	     58.18982798	     47.35770158	      0.00000000	      0.00000000
     36.14571429	     -2.92209122	     -5.06110282	     -1.17562231	      1.12537293	      0.92810697	      0.46656908	     14.76107040	      1.06010487	    -12.47845409	     19.44537803	     19.44537803	      9.35507232	      1.62171875	     -4.78496914	     17.20121905	    -12.97829155	     -2.98087973	     54.75697901	     54.75697901	     11.04238202	    -18.56096883	      7.80301160	    -10.32920377	      7.23880907	      1.93420911	      8.32431723	    -15.14565340	     -5.52756700	     36.07543433	     45.99844724	      0.00000000	      0.00000000	      9.77420152	    -12.23999926	     -8.08288970	     57.17033606	     47.31514154	      0.00000000	      0.00000000
     36.15835714	     -2.88733726	     -5.18043945	     -0.84652042	      1.12495888	      0.92840212	      0.46805287	     14.24390645	      1.28902134	    -12.71179520	     19.19940746	     19.19940746	      9.49243813	      1.51730524	     -4.76660153	     18.84148346	    -13.13368011	     -1.96165352	     56.95000379	     56.95000379	     10.16676926	    -18.68636910	      8.19736433	    -10.44866200	      7.26406099	      2.04424167	      9.88179552	    -15.40428772	     -5.48671622	     36.99635692	     45.96990975	      0.00000000	      0.00000000	      8.96318131	    -11.84844445	     -7.88016250	     56.14354322	     47.27536575	      0.00000000	      0.00000000
     36.17100000	     -2.96322510	     -5.20425152	     -0.46937607	      1.12436974	      0.92858773	      0.46930748	     13.81825175	      1.45384540	    -12.72927246	     18.85221302	     18.85221302	      9.56151783	      1.08266491	     -4.94126522	     20.67383937	    -13.03373607	     -0.85186601	     58.94227118	     58.94227118	     10.68885925	    -18.51841358	     11.75483630	    -10.37751271	      7.26027736	      2.21839609	     10.61788634	    -16.03112211	     -3.90574243	     39.78028174	     45.76955069	      0.00000000	      0.00000000	      9.12411618	    -11.31550736	     -7.90921193	     52.25637409	     47.20336743	      0.00000000	      0.00000000
     36.18364286	     -3.02752558	     -5.25750409	     -0.10554509	      1.12366019	      0.92877817	      0.47053545	     13.40749286	      1.63062376	    -12.85105000	     18.54900840	     18.54900840	      9.68977788	      0.84262063	     -4.90136887	     22.25088293	    -13.04210772	     -0.02246272	     60.13662426	     60.13662426	     10.23465992	    -18.50707067	     11.95763810	    -10.37469897	      7.23523811	      1.97005030	     12.23220722	    -16.10491391	     -3.74802481	     41.22323536	     45.71533821	      0.00000000	      0.00000000	      8.14829395	    -11.17350695	     -7.71720631	     50.90097800	     47.15435913	      0.00000000	      0.00000000
     36.19628571	     -3.12812706	     -5.32942002	      0.25772938	      1.12283343	      0.92890318	      0.47158736	     13.05098328	      1.83019530	    -12.92319395	     18.23125635	     18.23125635	      9.70535945	      0.39306504	     -4.96247240	     23.82648870	    -13.04732798	      0.69787360	     60.90865223	     60.90865223	     10.23586978	    -18.50002386	     12.78940357	    -10.36171686	      7.20510716	      2.29723210	     13.03653203	    -16.83522387	     -2.52444599	     43.93910947	     45.55559807	      0.00000000	      0.00000000	      8.08383659	    -10.60687043	     -7.74762192	     47.97681011	     47.09699155	      0.00000000	      0.00000000
     36.20892857	     -3.19977694	     -5.35437850	      0.63094339	      1.12195925	      0.92910997	      0.47256032	     12.66220124	      1.96428542	    -13.02199126	     17.92509323	     17.92509323	      9.88660030	      0.15981425	     -4.92662783	     25.19442905	    -13.00531210	      1.26262287	     61.00301634	     61.00301634	     10.18762618	    -18.52147391	     12.81223254	    -10.38332143	      7.10935964	      1.95163179	     14.78381274	    -16.78923514	     -2.50889923	     45.43087533	     45.51019307	      0.00000000	      0.00000000	      7.06701012	    -10.52002328	     -7.61662843	     46.62782084	     47.05542900	      0.00000000	      0.00000000
     36.22157143	     -3.28577912	     -5.31474955	      0.98958488	      1.12103319	      0.92938334	      0.47338521	     12.28739578	      2.05645695	    -12.96865544	     17.58026253	     17.58026253	      9.93425663	     -0.36445249	     -4.95906290	     26.44259346	    -12.91353148	      1.61189979	     60.52892841	     60.52892841	     10.36433443	    -18.57807263	     13.21132234	    -10.40416823	      6.95582643	      2.20736090	     15.52011394	    -17.52886355	     -1.36084938	     48.80155732	     45.34396982	      0.00000000	      0.00000000	      7.21632032	     -9.98429177	     -7.88142623	     43.10991097	     47.02401430	      0.00000000	      0.00000000
     36.23421429	     -3.37296408	     -5.27479862	      1.39472464	      1.12008700	      0.92967574	      0.47404290	     11.88868569	      2.10793754	    -13.10669161	     17.21488359	     17.21488359	     10.05641131	     -0.58179700	     -4.89836660	     27.57578512	    -12.83325920	      1.81457414	     59.49374741	     59.49374741	     10.54010412	    -18.66260931	     13.31404557	    -10.43484301	      6.76911552	      1.73676594	     17.23195795	    -17.37427819	     -1.37917619	     50.65595324	     45.28973268	      0.00000000	      0.00000000	      6.21763740	     -9.92320213	     -7.82597770	     41.62229821	     46.98732617	      0.00000000	      0.00000000
     36.24685714	     -3.47797530	     -5.20871990	      1.80984607	      1.11905266	      0.92995743	      0.47456395	     11.51008763	      2.13581406	    -13.18858029	     16.83079573	     16.83079573	     10.16319353	     -0.88266550	     -4.82859830	     28.58922038	    -12.73289604	      1.84785097	     57.91731997	     57.91731997	     10.80647023	    -18.75597798	     13.51465861	    -10.48769696	      6.55496204	      1.33575658	     18.77717442	    -17.29591815	     -1.23543502	     52.89280695	     45.21456165	      0.00000000	      0.00000000	      5.42491840	     -9.80743157	     -7.83286150	     39.77429553	     46.95824753	      0.00000000	      0.00000000
     36.25950000	     -3.56722530	     -5.15777262	      2.24276137	      1.11804689	      0.93018943	      0.47490327	     11.09808927	      2.18121583	    -13.30267601	     16.42807601	     16.42807601	     10.28929206	     -1.25523282	     -4.78490884	     29.46811415	    -12.62724347	      1.76563663	     55.89456650	     55.89456650	     11.19478995	    -18.84466282	     13.80211971	    -10.51310261	      6.39522959	      1.00186743	     20.03176370	    -17.37514826	     -0.85493977	     56.04905278	     45.09904573	      0.00000000	      0.00000000	      4.97034649	     -9.62722601	     -7.94685552	     37.24982461	     46.94003825	      0.00000000	      0.00000000
     36.27214286	     -3.75076452	     -5.05384737	      2.65473605	      1.11685840	      0.93037435	      0.47511210	     10.84235635	      2.13896258	    -13.37631044	     16.10246278	     16.10246278	     10.34537241	     -1.55920614	     -4.83881897	     30.27410014	    -12.43476124	      1.54225262	     53.37093526	     53.37093526	     11.43604354	    -18.88252310	     14.14775498	    -10.53475779	      6.13826429	      1.72740490	     20.00590576	    -18.55111811	     -0.34965704	     60.71605460	     44.93923835	      0.00000000	      0.00000000	      5.62593575	     -8.99903542	     -8.38707725	     33.68133705	     46.95648319	      0.00000000	      0.00000000
     36.28478571	     -3.90141826	     -4.88339218	      3.08114375	      1.11566161	      0.93056042	      0.47511793	     10.54384573	      2.00645485	    -13.49583942	     15.78600593	     15.78600593	     10.47944116	     -1.78066553	     -4.78571541	     30.87237991	    -12.10003650	      1.23768437	     50.46468729	     50.46468729	     11.72991304	    -18.91565875	     14.41886266	    -10.55755257	      5.77917426	      1.32482256	     21.70268597	    -18.29109900	     -0.62079242	     62.49405304	     44.90034027	      0.00000000	      0.00000000	      4.74081985	     -8.95147668	     -8.36795198	     32.63641289	     46.93303262	      0.00000000	      0.00000000
